# WaveFront *.obj file (generated by Autodesk ATF)

mtllib 9d58cb2f-e34c-4799-a2ac-ceb6dd2d7f82.mtl

g Body1

v 0.000000 -0.600000 1.300000
v 0.000000 -0.600000 1.200000
v 0.700000 -0.600000 1.200000
v 0.700000 -0.600000 1.300000
v 0.000000 0.200000 1.300000
v 0.000000 0.071012 1.253395
v 0.000000 -0.063180 1.225068
v 0.000000 -0.200000 1.215565
v 0.000000 -0.336820 1.225068
v 0.000000 -0.471012 1.253395
v 0.700000 -0.471012 1.253395
v 0.700000 -0.336820 1.225068
v 0.700000 -0.200000 1.215565
v 0.700000 -0.063180 1.225068
v 0.700000 0.071012 1.253395
v 0.700000 0.200000 1.300000
v 0.000000 2.100000 1.300000
v 0.000000 1.897439 1.378527
v 0.000000 1.688493 1.438018
v 0.000000 1.474947 1.477962
v 0.000000 1.258625 1.498021
v 0.000000 1.041375 1.498021
v 0.000000 0.825053 1.477962
v 0.000000 0.611507 1.438018
v 0.000000 0.402561 1.378527
v 0.700000 0.402561 1.378527
v 0.700000 0.611507 1.438018
v 0.700000 0.825053 1.477962
v 0.700000 1.041375 1.498021
v 0.700000 1.258625 1.498021
v 0.700000 1.474947 1.477962
v 0.700000 1.688493 1.438018
v 0.700000 1.897439 1.378527
v 0.700000 2.100000 1.300000
v 0.000000 2.100000 1.200000
v 0.700000 2.100000 1.200000
v 0.000000 0.200000 1.200000
v 0.000000 0.402561 1.278527
v 0.000000 0.611507 1.338018
v 0.000000 0.825053 1.377962
v 0.000000 1.041375 1.398021
v 0.000000 1.258625 1.398021
v 0.000000 1.474947 1.377962
v 0.000000 1.688493 1.338018
v 0.000000 1.897439 1.278527
v 0.700000 1.897439 1.278527
v 0.700000 1.688493 1.338018
v 0.700000 1.474947 1.377962
v 0.700000 1.258625 1.398021
v 0.700000 1.041375 1.398021
v 0.700000 0.825053 1.377962
v 0.700000 0.611507 1.338018
v 0.700000 0.402561 1.278527
v 0.700000 0.200000 1.200000
v 0.000000 -0.471012 1.153395
v 0.000000 -0.336820 1.125068
v 0.000000 -0.200000 1.115565
v 0.000000 -0.063180 1.125068
v 0.000000 0.071012 1.153395
v 0.700000 0.071012 1.153395
v 0.700000 -0.063180 1.125068
v 0.700000 -0.200000 1.115565
v 0.700000 -0.336820 1.125068
v 0.700000 -0.471012 1.153395
vt -0.000000 0.000000 0.000000
vt 0.010000 0.000000 0.000000
vt -0.000000 0.070000 0.000000
vt 0.010000 0.070000 0.000000
vt 0.070000 0.082356 0.000000
vt -0.000000 0.082356 0.000000
vt 0.070000 0.068630 0.000000
vt 0.000000 0.068630 0.000000
vt 0.070000 0.054904 0.000000
vt -0.000000 0.054904 0.000000
vt 0.070000 0.041178 0.000000
vt -0.000000 0.041178 0.000000
vt 0.070000 0.027452 0.000000
vt -0.000000 0.027452 0.000000
vt 0.070000 0.013726 0.000000
vt 0.000000 0.013726 0.000000
vt 0.070000 0.000000 0.000000
vt -0.000000 0.000000 0.000000
vt -0.070000 0.000000 0.000000
vt -0.000000 0.000000 0.000000
vt -0.070000 0.021733 0.000000
vt -0.000000 0.021733 0.000000
vt -0.070000 0.043465 0.000000
vt -0.000000 0.043465 0.000000
vt -0.070000 0.065198 0.000000
vt -0.000000 0.065198 0.000000
vt -0.070000 0.086931 0.000000
vt -0.000000 0.086931 0.000000
vt -0.070000 0.108664 0.000000
vt -0.000000 0.108664 0.000000
vt -0.070000 0.130396 0.000000
vt -0.000000 0.130396 0.000000
vt -0.070000 0.152129 0.000000
vt -0.000000 0.152129 0.000000
vt -0.070000 0.173862 0.000000
vt -0.000000 0.173862 0.000000
vt -0.070000 0.195595 0.000000
vt -0.000000 0.195595 0.000000
vt 0.000000 0.000000 0.000000
vt 0.010000 0.000000 0.000000
vt 0.000000 0.070000 0.000000
vt 0.010000 0.070000 0.000000
vt 0.070000 0.195595 0.000000
vt 0.000000 0.195595 0.000000
vt 0.070000 0.173862 0.000000
vt 0.000000 0.173862 0.000000
vt 0.070000 0.152129 0.000000
vt -0.000000 0.152129 0.000000
vt 0.070000 0.130396 0.000000
vt -0.000000 0.130396 0.000000
vt 0.070000 0.108664 0.000000
vt 0.000000 0.108664 0.000000
vt 0.070000 0.086931 0.000000
vt -0.000000 0.086931 0.000000
vt 0.070000 0.065198 0.000000
vt -0.000000 0.065198 0.000000
vt 0.070000 0.043465 0.000000
vt -0.000000 0.043465 0.000000
vt 0.070000 0.021733 0.000000
vt 0.000000 0.021733 0.000000
vt 0.070000 -0.000000 0.000000
vt 0.000000 -0.000000 0.000000
vt -0.070000 0.000000 0.000000
vt -0.000000 0.000000 0.000000
vt -0.070000 0.013726 0.000000
vt -0.000000 0.013726 0.000000
vt -0.070000 0.027452 0.000000
vt -0.000000 0.027452 0.000000
vt -0.070000 0.041178 0.000000
vt -0.000000 0.041178 0.000000
vt -0.070000 0.054904 0.000000
vt -0.000000 0.054904 0.000000
vt -0.070000 0.068630 0.000000
vt -0.000000 0.068630 0.000000
vt -0.070000 0.082356 0.000000
vt -0.000000 0.082356 0.000000
vt -0.135000 -0.000805 0.000000
vt -0.135000 -0.010805 0.000000
vt -0.122101 -0.005465 0.000000
vt -0.122101 -0.015465 0.000000
vt -0.108682 -0.008298 0.000000
vt -0.108682 -0.018298 0.000000
vt -0.095000 -0.009248 0.000000
vt -0.095000 -0.019248 0.000000
vt -0.081318 -0.018298 0.000000
vt -0.081318 -0.008298 0.000000
vt -0.067899 -0.015465 0.000000
vt -0.067899 -0.005465 0.000000
vt -0.055000 -0.010805 0.000000
vt -0.055000 -0.000805 0.000000
vt -0.034744 -0.002952 0.000000
vt -0.034744 0.007048 0.000000
vt -0.013849 0.002997 0.000000
vt -0.013849 0.012997 0.000000
vt 0.007505 0.006991 0.000000
vt 0.007505 0.016991 0.000000
vt 0.029138 0.008997 0.000000
vt 0.029138 0.018997 0.000000
vt 0.050862 0.018997 0.000000
vt 0.050862 0.008997 0.000000
vt 0.072495 0.016991 0.000000
vt 0.072495 0.006991 0.000000
vt 0.093849 0.012997 0.000000
vt 0.093849 0.002997 0.000000
vt 0.114744 0.007048 0.000000
vt 0.114744 -0.002952 0.000000
vt 0.135000 -0.000805 0.000000
vt 0.135000 -0.010805 0.000000
vt 0.067899 -0.015465 0.000000
vt 0.067899 -0.005465 0.000000
vt 0.055000 -0.010805 0.000000
vt 0.055000 -0.000805 0.000000
vt 0.034744 -0.002952 0.000000
vt 0.034744 0.007048 0.000000
vt 0.013849 0.002997 0.000000
vt 0.013849 0.012997 0.000000
vt -0.007505 0.006991 0.000000
vt -0.007505 0.016991 0.000000
vt -0.029138 0.008997 0.000000
vt -0.029138 0.018997 0.000000
vt -0.050862 0.018997 0.000000
vt 0.081318 -0.008298 0.000000
vt 0.081318 -0.018298 0.000000
vt 0.095000 -0.009248 0.000000
vt 0.095000 -0.019248 0.000000
vt 0.108682 -0.018298 0.000000
vt 0.108682 -0.008298 0.000000
vt 0.122101 -0.015465 0.000000
vt 0.122101 -0.005465 0.000000
vt 0.135000 -0.010805 0.000000
vt 0.135000 -0.000805 0.000000
vt -0.050862 0.008997 0.000000
vt -0.072495 0.016991 0.000000
vt -0.072495 0.006991 0.000000
vt -0.093849 0.012997 0.000000
vt -0.093849 0.002997 0.000000
vt -0.114744 0.007048 0.000000
vt -0.114744 -0.002952 0.000000
vt -0.135000 -0.000805 0.000000
vt -0.135000 -0.010805 0.000000
vn 0.000000 -0.100000 0.000000
vn 0.000000 -0.100000 0.000000
vn 0.000000 -0.100000 0.000000
vn 0.000000 -0.100000 0.000000
vn 0.000000 -0.040416 0.091469
vn 0.000000 -0.040416 0.091469
vn 0.000000 -0.027383 0.096178
vn 0.000000 -0.027383 0.096178
vn 0.000000 -0.013824 0.099040
vn 0.000000 -0.013824 0.099040
vn 0.000000 0.000000 0.100000
vn 0.000000 0.000000 0.100000
vn 0.000000 0.013824 0.099040
vn 0.000000 0.013824 0.099040
vn 0.000000 0.027383 0.096178
vn 0.000000 0.027383 0.096178
vn 0.000000 0.040416 0.091469
vn 0.000000 0.040416 0.091469
vn 0.000000 0.040416 0.091469
vn 0.000000 0.040416 0.091469
vn 0.000000 0.031799 0.094810
vn 0.000000 0.031799 0.094810
vn 0.000000 0.022909 0.097340
vn 0.000000 0.022909 0.097340
vn 0.000000 0.013824 0.099040
vn 0.000000 0.013824 0.099040
vn 0.000000 0.004621 0.099893
vn 0.000000 0.004621 0.099893
vn 0.000000 -0.004621 0.099893
vn 0.000000 -0.004621 0.099893
vn 0.000000 -0.013824 0.099040
vn 0.000000 -0.013824 0.099040
vn 0.000000 -0.022909 0.097340
vn 0.000000 -0.022909 0.097340
vn 0.000000 -0.031799 0.094810
vn 0.000000 -0.031799 0.094810
vn 0.000000 0.100000 0.000000
vn 0.000000 0.100000 0.000000
vn 0.000000 0.100000 0.000000
vn 0.000000 0.100000 0.000000
vn 0.000000 0.040416 -0.091469
vn 0.000000 0.040416 -0.091469
vn 0.000000 0.031799 -0.094810
vn 0.000000 0.031799 -0.094810
vn 0.000000 0.022909 -0.097340
vn 0.000000 0.022909 -0.097340
vn 0.000000 0.013824 -0.099040
vn 0.000000 0.013824 -0.099040
vn 0.000000 0.004621 -0.099893
vn 0.000000 0.004621 -0.099893
vn 0.000000 -0.004621 -0.099893
vn 0.000000 -0.004621 -0.099893
vn 0.000000 -0.013824 -0.099040
vn 0.000000 -0.013824 -0.099040
vn 0.000000 -0.022909 -0.097340
vn 0.000000 -0.022909 -0.097340
vn 0.000000 -0.031799 -0.094810
vn 0.000000 -0.031799 -0.094810
vn 0.000000 -0.040416 -0.091469
vn 0.000000 -0.040416 -0.091469
vn 0.000000 -0.040416 -0.091469
vn 0.000000 -0.040416 -0.091469
vn 0.000000 -0.027383 -0.096178
vn 0.000000 -0.027383 -0.096178
vn 0.000000 -0.013824 -0.099040
vn 0.000000 -0.013824 -0.099040
vn 0.000000 -0.000000 -0.100000
vn 0.000000 -0.000000 -0.100000
vn -0.000000 0.013824 -0.099040
vn -0.000000 0.013824 -0.099040
vn -0.000000 0.027383 -0.096178
vn -0.000000 0.027383 -0.096178
vn -0.000000 0.040416 -0.091469
vn -0.000000 0.040416 -0.091469
vn 0.100000 0.000000 0.000000
vn 0.100000 0.000000 0.000000
vn 0.100000 0.000000 0.000000
vn 0.100000 0.000000 0.000000
vn 0.100000 0.000000 0.000000
vn 0.100000 0.000000 0.000000
vn 0.100000 0.000000 0.000000
vn 0.100000 0.000000 0.000000
vn 0.100000 0.000000 0.000000
vn 0.100000 0.000000 0.000000
vn 0.100000 0.000000 0.000000
vn 0.100000 0.000000 0.000000
vn 0.100000 0.000000 0.000000
vn 0.100000 0.000000 0.000000
vn 0.100000 0.000000 0.000000
vn 0.100000 0.000000 0.000000
vn 0.100000 0.000000 0.000000
vn 0.100000 0.000000 0.000000
vn 0.100000 0.000000 0.000000
vn 0.100000 0.000000 0.000000
vn 0.100000 0.000000 0.000000
vn 0.100000 0.000000 0.000000
vn 0.100000 0.000000 0.000000
vn 0.100000 0.000000 0.000000
vn 0.100000 0.000000 0.000000
vn 0.100000 0.000000 0.000000
vn 0.100000 0.000000 0.000000
vn 0.100000 0.000000 0.000000
vn 0.100000 0.000000 0.000000
vn 0.100000 0.000000 0.000000
vn 0.100000 0.000000 0.000000
vn 0.100000 0.000000 0.000000
vn -0.100000 0.000000 0.000000
vn -0.100000 0.000000 0.000000
vn -0.100000 0.000000 0.000000
vn -0.100000 0.000000 0.000000
vn -0.100000 0.000000 0.000000
vn -0.100000 0.000000 0.000000
vn -0.100000 0.000000 0.000000
vn -0.100000 0.000000 0.000000
vn -0.100000 0.000000 0.000000
vn -0.100000 0.000000 0.000000
vn -0.100000 0.000000 0.000000
vn -0.100000 0.000000 0.000000
vn -0.100000 0.000000 0.000000
vn -0.100000 0.000000 0.000000
vn -0.100000 0.000000 0.000000
vn -0.100000 0.000000 0.000000
vn -0.100000 0.000000 0.000000
vn -0.100000 0.000000 0.000000
vn -0.100000 0.000000 0.000000
vn -0.100000 0.000000 0.000000
vn -0.100000 0.000000 0.000000
vn -0.100000 0.000000 0.000000
vn -0.100000 0.000000 0.000000
vn -0.100000 0.000000 0.000000
vn -0.100000 0.000000 0.000000
vn -0.100000 0.000000 0.000000
vn -0.100000 0.000000 0.000000
vn -0.100000 0.000000 0.000000
vn -0.100000 0.000000 0.000000
vn -0.100000 0.000000 0.000000
vn -0.100000 0.000000 0.000000
vn -0.100000 0.000000 0.000000
usemtl Steel_-_Satin
f 1/1/1 2/2/2 4/3/3
f 4/3/3 2/2/2 3/4/4
f 16/5/5 5/6/6 15/7/7
f 15/7/7 5/6/6 6/8/8
f 15/7/7 6/8/8 14/9/9
f 14/9/9 6/8/8 7/10/10
f 14/9/9 7/10/10 13/11/11
f 13/11/11 7/10/10 8/12/12
f 13/11/11 8/12/12 12/13/13
f 12/13/13 8/12/12 9/14/14
f 12/13/13 9/14/14 11/15/15
f 11/15/15 9/14/14 10/16/16
f 11/15/15 10/16/16 4/17/17
f 4/17/17 10/16/16 1/18/18
f 34/19/19 17/20/20 33/21/21
f 33/21/21 17/20/20 18/22/22
f 33/21/21 18/22/22 32/23/23
f 32/23/23 18/22/22 19/24/24
f 32/23/23 19/24/24 31/25/25
f 31/25/25 19/24/24 20/26/26
f 31/25/25 20/26/26 30/27/27
f 30/27/27 20/26/26 21/28/28
f 30/27/27 21/28/28 29/29/29
f 29/29/29 21/28/28 22/30/30
f 29/29/29 22/30/30 28/31/31
f 28/31/31 22/30/30 23/32/32
f 28/31/31 23/32/32 27/33/33
f 27/33/33 23/32/32 24/34/34
f 27/33/33 24/34/34 26/35/35
f 26/35/35 24/34/34 25/36/36
f 26/35/35 25/36/36 16/37/5
f 16/37/5 25/36/36 5/38/6
f 35/39/37 17/40/38 36/41/39
f 36/41/39 17/40/38 34/42/40
f 54/43/41 37/44/42 53/45/43
f 53/45/43 37/44/42 38/46/44
f 53/45/43 38/46/44 52/47/45
f 52/47/45 38/46/44 39/48/46
f 52/47/45 39/48/46 51/49/47
f 51/49/47 39/48/46 40/50/48
f 51/49/47 40/50/48 50/51/49
f 50/51/49 40/50/48 41/52/50
f 50/51/49 41/52/50 49/53/51
f 49/53/51 41/52/50 42/54/52
f 49/53/51 42/54/52 48/55/53
f 48/55/53 42/54/52 43/56/54
f 48/55/53 43/56/54 47/57/55
f 47/57/55 43/56/54 44/58/56
f 47/57/55 44/58/56 46/59/57
f 46/59/57 44/58/56 45/60/58
f 46/59/57 45/60/58 36/61/59
f 36/61/59 45/60/58 35/62/60
f 3/63/61 2/64/62 64/65/63
f 64/65/63 2/64/62 55/66/64
f 64/65/63 55/66/64 63/67/65
f 63/67/65 55/66/64 56/68/66
f 63/67/65 56/68/66 62/69/67
f 62/69/67 56/68/66 57/70/68
f 62/69/67 57/70/68 61/71/69
f 61/71/69 57/70/68 58/72/70
f 61/71/69 58/72/70 60/73/71
f 60/73/71 58/72/70 59/74/72
f 60/73/71 59/74/72 54/75/73
f 54/75/73 59/74/72 37/76/74
f 4/77/75 3/78/76 11/79/77
f 11/79/77 3/78/76 64/80/78
f 11/79/77 64/80/78 12/81/79
f 12/81/79 64/80/78 63/82/80
f 12/81/79 63/82/80 13/83/81
f 13/83/81 63/82/80 62/84/82
f 13/83/81 62/84/82 61/85/83
f 13/83/81 61/85/83 14/86/84
f 14/86/84 61/85/83 60/87/85
f 14/86/84 60/87/85 15/88/86
f 15/88/86 60/87/85 54/89/87
f 15/88/86 54/89/87 16/90/88
f 16/90/88 54/89/87 53/91/89
f 16/90/88 53/91/89 26/92/90
f 26/92/90 53/91/89 52/93/91
f 26/92/90 52/93/91 27/94/92
f 27/94/92 52/93/91 51/95/93
f 27/94/92 51/95/93 28/96/94
f 28/96/94 51/95/93 50/97/95
f 28/96/94 50/97/95 29/98/96
f 29/98/96 50/97/95 30/99/97
f 30/99/97 50/97/95 49/100/98
f 30/99/97 49/100/98 31/101/99
f 31/101/99 49/100/98 48/102/100
f 31/101/99 48/102/100 32/103/101
f 32/103/101 48/102/100 47/104/102
f 32/103/101 47/104/102 33/105/103
f 33/105/103 47/104/102 46/106/104
f 33/105/103 46/106/104 34/107/105
f 34/107/105 46/106/104 36/108/106
f 59/109/107 6/110/108 37/111/109
f 37/111/109 6/110/108 5/112/110
f 37/111/109 5/112/110 38/113/111
f 38/113/111 5/112/110 25/114/112
f 38/113/111 25/114/112 39/115/113
f 39/115/113 25/114/112 24/116/114
f 39/115/113 24/116/114 40/117/115
f 40/117/115 24/116/114 23/118/116
f 40/117/115 23/118/116 41/119/117
f 41/119/117 23/118/116 22/120/118
f 41/119/117 22/120/118 21/121/119
f 6/110/108 59/109/107 7/122/120
f 7/122/120 59/109/107 58/123/121
f 7/122/120 58/123/121 8/124/122
f 8/124/122 58/123/121 57/125/123
f 8/124/122 57/125/123 56/126/124
f 8/124/122 56/126/124 9/127/125
f 9/127/125 56/126/124 55/128/126
f 9/127/125 55/128/126 10/129/127
f 10/129/127 55/128/126 2/130/128
f 10/129/127 2/130/128 1/131/129
f 41/119/117 21/121/119 42/132/130
f 42/132/130 21/121/119 20/133/131
f 42/132/130 20/133/131 43/134/132
f 43/134/132 20/133/131 19/135/133
f 43/134/132 19/135/133 44/136/134
f 44/136/134 19/135/133 18/137/135
f 44/136/134 18/137/135 45/138/136
f 45/138/136 18/137/135 17/139/137
f 45/138/136 17/139/137 35/140/138

# 64 vertices
# 140 texture params
# 138 normals
# 124 facets

# 1 groups
