# WaveFront *.obj file (generated by Autodesk ATF)

mtllib ea830746-b6ea-4da8-b61b-7be864fe9e79.mtl

g Body1

v 0.000000 0.000000 0.089308
v 0.500000 0.000000 0.089308
v 0.576967 0.141478 0.089308
v -0.031674 0.472593 0.089308
v -0.115541 1.723928 0.262505
v 1.192675 1.273246 0.300000
v 0.000000 0.000000 0.000000
v 0.500000 0.000000 0.000000
v -0.115541 1.723928 0.000000
v 1.192675 1.273246 0.000000
vt -0.016106 0.000000 0.000000
vt 0.000000 0.000000 0.000000
vt -0.040000 0.043921 0.000000
vt -0.000000 0.069288 0.000000
vt -0.023233 0.136454 0.000000
vt -0.130552 0.069288 0.000000
vt 0.000000 0.000000 0.000000
vt -0.130552 -0.000000 0.000000
vt 0.050000 0.008931 0.000000
vt 0.000000 0.008931 0.000000
vt 0.050000 0.000000 0.000000
vt 0.000000 0.000000 0.000000
vt 0.172780 0.008931 0.000000
vt 0.125414 0.008931 0.000000
vt 0.172780 0.000000 0.000000
vt 0.000000 0.000000 0.000000
vt 0.000000 0.026251 0.000000
vt 0.000000 0.030000 0.000000
vt 0.000000 0.000000 0.000000
vt 0.138367 0.026251 0.000000
vt 0.138367 0.000000 0.000000
vt 0.000000 0.008931 0.000000
vt 0.000000 0.000000 0.000000
vt 0.016106 0.008931 0.000000
vt 0.144947 0.000000 0.000000
vt 0.144947 0.030000 0.000000
vt 0.053857 -0.086196 0.000000
vt 0.065411 0.086196 0.000000
vt 0.003857 -0.086196 0.000000
vt -0.065411 0.041128 0.000000
vn 0.000000 -0.000000 0.100000
vn 0.000000 -0.000000 0.100000
vn 0.000000 -0.000000 0.100000
vn 0.000000 -0.000000 0.100000
vn -0.007712 -0.014176 0.098689
vn -0.007712 -0.014176 0.098689
vn -0.007712 -0.014176 0.098689
vn -0.007712 -0.014176 0.098689
vn 0.000000 -0.100000 0.000000
vn 0.000000 -0.100000 0.000000
vn 0.000000 -0.100000 0.000000
vn 0.000000 -0.100000 0.000000
vn -0.099776 -0.006687 0.000000
vn -0.099776 -0.006687 0.000000
vn -0.099776 -0.006687 0.000000
vn -0.099776 -0.006687 0.000000
vn -0.099776 -0.006687 0.000000
vn 0.032572 0.094547 0.000000
vn 0.032572 0.094547 0.000000
vn 0.032572 0.094547 0.000000
vn 0.032572 0.094547 0.000000
vn 0.087842 -0.047788 0.000000
vn 0.087842 -0.047788 0.000000
vn 0.087842 -0.047788 0.000000
vn 0.087842 -0.047788 0.000000
vn 0.087842 -0.047788 0.000000
vn 0.000000 0.000000 -0.100000
vn 0.000000 0.000000 -0.100000
vn 0.000000 0.000000 -0.100000
vn 0.000000 0.000000 -0.100000
usemtl Steel_-_Satin
f 2/1/1 3/2/2 1/3/3
f 1/3/3 3/2/2 4/4/4
f 5/5/5 4/6/6 6/7/7
f 6/7/7 4/6/6 3/8/8
f 2/9/9 1/10/10 8/11/11
f 8/11/11 1/10/10 7/12/12
f 1/13/13 4/14/14 7/15/15
f 7/15/15 4/14/14 9/16/16
f 9/16/16 4/14/14 5/17/17
f 6/18/18 10/19/19 5/20/20
f 5/20/20 10/19/19 9/21/21
f 2/22/22 8/23/23 3/24/24
f 3/24/24 8/23/23 10/25/25
f 3/24/24 10/25/25 6/26/26
f 7/27/27 9/28/28 8/29/29
f 8/29/29 9/28/28 10/30/30

# 10 vertices
# 30 texture params
# 30 normals
# 16 facets

# 1 groups
